<?xml version="1.0" standalone="no"?>
<!DOCTYPE svg PUBLIC "-//W3C//DTD SVG 20010904//EN"
 "http://www.w3.org/TR/2001/REC-SVG-20010904/DTD/svg10.dtd">
<svg version="1.0" xmlns="http://www.w3.org/2000/svg"
 width="940.000000pt" height="1280.000000pt" viewBox="0 0 940.000000 1280.000000"
 preserveAspectRatio="xMidYMid meet">
<metadata>
Created by potrace 1.15, written by Peter Selinger 2001-2017
</metadata>
<g transform="translate(0.000000,1280.000000) scale(0.100000,-0.100000)"
fill="#000000" stroke="none">
<path d="M7280 11827 c-348 -459 -913 -1141 -1374 -1662 -747 -842 -1839
-1959 -2631 -2690 -133 -124 -1004 -899 -1335 -1190 -200 -175 -440 -398 -440
-408 0 -5 48 -75 107 -155 60 -80 111 -150 114 -155 4 -6 69 6 165 31 420 109
847 184 1289 227 217 22 794 31 950 16 144 -14 318 -40 334 -50 8 -6 -22 -91
-102 -292 -458 -1139 -967 -2588 -1203 -3427 l-35 -124 53 -57 c29 -31 60 -55
68 -54 8 1 83 11 165 22 290 39 395 46 725 46 285 -1 342 -4 465 -23 77 -12
165 -28 197 -36 l56 -13 58 37 58 37 42 204 c111 535 259 1157 430 1807 108
410 460 1702 465 1706 2 1 58 -3 124 -10 66 -7 237 -18 380 -24 406 -17 776 8
978 66 15 5 17 23 17 199 l0 194 -40 37 c-73 67 -59 65 -241 39 -254 -37 -426
-55 -520 -55 -141 0 -537 45 -555 63 -6 5 119 462 261 962 145 507 685 2324
765 2570 26 83 197 606 380 1164 182 558 327 1018 323 1022 -10 10 -350 129
-366 128 -7 0 -64 -68 -127 -152z m-1259 -2319 c-10 -24 -139 -317 -286 -653
-639 -1459 -788 -1809 -880 -2070 -73 -206 -187 -501 -198 -512 -1 -1 -58 7
-126 17 -297 46 -432 55 -821 55 -373 0 -526 -9 -879 -50 -64 -7 -117 -12
-118 -11 -1 1 156 148 349 326 194 179 462 429 598 555 135 127 353 329 485
450 405 371 712 686 1790 1836 49 53 93 97 97 98 4 0 -1 -18 -11 -41z"/>
</g>
</svg>
