<?xml version="1.0" standalone="no"?>
<!DOCTYPE svg PUBLIC "-//W3C//DTD SVG 20010904//EN"
 "http://www.w3.org/TR/2001/REC-SVG-20010904/DTD/svg10.dtd">
<svg version="1.0" xmlns="http://www.w3.org/2000/svg"
 width="940.000000pt" height="1280.000000pt" viewBox="0 0 940.000000 1280.000000"
 preserveAspectRatio="xMidYMid meet">
<metadata>
Created by potrace 1.15, written by Peter Selinger 2001-2017
</metadata>
<g transform="translate(0.000000,1280.000000) scale(0.100000,-0.100000)"
fill="#000000" stroke="none">
<path d="M8122 12296 c-47 -10 -57 -17 -93 -66 -56 -75 -171 -192 -243 -246
-232 -176 -531 -264 -894 -264 -235 0 -490 24 -1112 105 -518 67 -639 78 -870
79 -164 1 -194 -2 -263 -22 -232 -67 -336 -182 -463 -509 -24 -62 -62 -174
-85 -250 -23 -76 -88 -255 -144 -398 -56 -143 -105 -271 -109 -285 -24 -82
-99 -268 -171 -420 -45 -96 -230 -510 -410 -920 -180 -410 -373 -844 -430
-965 -57 -121 -146 -315 -198 -432 l-95 -212 192 -99 c105 -55 196 -102 202
-104 6 -2 72 69 145 157 161 193 445 480 589 595 276 220 531 352 785 405 108
23 307 23 400 1 162 -39 315 -142 421 -283 100 -133 162 -274 207 -478 20 -91
22 -126 21 -395 0 -248 -4 -322 -23 -465 -210 -1579 -1184 -3166 -2791 -4550
-647 -557 -1365 -1043 -2061 -1395 l-176 -89 -23 -62 -23 -62 76 -152 76 -153
61 -20 61 -21 202 106 c1267 664 2137 1168 2710 1570 997 698 1873 1476 2442
2168 740 900 1115 1833 1082 2690 -24 596 -231 1090 -632 1504 -329 340 -705
535 -1195 620 -526 92 -974 27 -1453 -209 -76 -38 -136 -63 -134 -57 3 7 113
278 245 602 265 653 351 853 453 1058 79 158 95 172 198 183 87 9 320 -23 501
-70 468 -121 856 -179 1205 -180 233 0 353 14 540 63 661 174 1142 648 1615
1591 51 101 59 125 48 135 -31 29 -309 215 -321 214 -6 -1 -36 -6 -65 -13z"/>
</g>
</svg>
